<?xml version="1.0" standalone="no"?>
<!DOCTYPE svg PUBLIC "-//W3C//DTD SVG 20010904//EN"
 "http://www.w3.org/TR/2001/REC-SVG-20010904/DTD/svg10.dtd">
<svg version="1.0" xmlns="http://www.w3.org/2000/svg"
 width="500.000000pt" height="500.000000pt" viewBox="0 0 500.000000 500.000000"
 preserveAspectRatio="xMidYMid meet">

<g transform="translate(0.000000,500.000000) scale(0.100000,-0.100000)"
fill="#000000" stroke="none">
<path d="M2324 4461 c-214 -35 -427 -187 -538 -386 -50 -90 -232 -509 -490
-1130 -185 -446 -226 -598 -226 -829 0 -274 79 -542 212 -720 123 -165 247
-272 440 -382 233 -133 602 -219 829 -194 314 35 576 130 794 290 230 168 392
456 456 810 18 97 20 138 15 265 -3 94 -13 183 -26 240 -20 91 -143 405 -265
680 -37 83 -75 174 -86 203 -11 30 -37 93 -58 140 -22 48 -63 141 -91 207
-149 339 -195 434 -251 511 -92 126 -228 224 -374 270 -89 27 -252 39 -341 25z
m267 -146 c111 -27 177 -69 267 -168 104 -115 137 -164 161 -241 16 -51 121
-298 199 -466 11 -25 34 -79 50 -120 17 -41 52 -122 77 -180 26 -58 63 -145
82 -195 19 -49 43 -108 53 -130 49 -112 128 -340 146 -420 8 -38 18 -137 21
-220 6 -187 -9 -282 -67 -421 -132 -310 -321 -516 -590 -642 -327 -152 -624
-171 -935 -60 -107 39 -261 115 -321 159 -93 69 -231 207 -290 291 -96 136
-190 357 -213 503 -11 67 -6 234 8 312 33 172 124 427 325 918 48 116 116 284
152 375 78 197 150 361 180 411 33 54 151 170 214 210 61 40 189 87 265 99 60
9 139 3 216 -15z"/>
<path d="M1930 3403 c-26 -13 -44 -35 -67 -82 -28 -55 -33 -75 -33 -135 1
-197 167 -295 283 -166 45 49 60 105 55 196 -5 80 -38 151 -84 181 -38 24
-112 28 -154 6z m153 -105 c28 -22 32 -73 8 -97 -27 -27 -51 -27 -85 0 -33 26
-33 53 -1 84 27 28 52 32 78 13z"/>
<path d="M2864 3411 c-27 -12 -68 -65 -89 -115 -19 -45 -21 -152 -4 -204 43
-133 186 -174 266 -75 46 58 54 78 60 152 5 59 2 75 -22 128 -38 87 -72 116
-137 120 -29 1 -63 -1 -74 -6z m144 -117 c32 -22 30 -78 -3 -100 -21 -14 -30
-14 -55 -4 -39 16 -53 41 -41 74 17 44 60 57 99 30z"/>
<path d="M2510 3110 c0 -48 -28 -81 -60 -73 -26 7 -40 39 -33 76 4 22 2 27
-14 27 -29 0 -43 -20 -43 -62 0 -44 33 -83 79 -93 39 -8 69 1 104 33 42 40 34
108 -15 125 -15 5 -18 0 -18 -33z"/>
<path d="M2343 2800 c-280 -51 -485 -299 -500 -606 -10 -197 43 -339 181 -478
93 -95 160 -135 266 -162 145 -36 298 -19 430 47 79 39 206 167 252 255 91
171 93 435 7 613 -34 69 -145 193 -217 243 -105 72 -289 111 -419 88z"/>
</g>
</svg>
