<?xml version="1.0" standalone="no"?>
<!DOCTYPE svg PUBLIC "-//W3C//DTD SVG 20010904//EN"
 "http://www.w3.org/TR/2001/REC-SVG-20010904/DTD/svg10.dtd">
<svg version="1.0" xmlns="http://www.w3.org/2000/svg"
 width="1024.000000pt" height="1024.000000pt" viewBox="0 0 1024.000000 1024.000000"
 preserveAspectRatio="xMidYMid meet">

<g transform="translate(0.000000,1024.000000) scale(0.100000,-0.100000)"
fill="#000000" stroke="none">
<path d="M7450 8580 c-137 -23 -185 -35 -330 -83 -85 -27 -175 -61 -199 -74
-24 -12 -49 -23 -56 -23 -6 0 -44 32 -84 70 -40 39 -76 68 -82 65 -5 -4 -9
-53 -9 -111 0 -58 -5 -114 -10 -124 -6 -11 -60 -56 -120 -101 -61 -44 -116
-88 -123 -98 -6 -9 -34 -34 -62 -56 -27 -21 -80 -68 -116 -103 l-67 -64 -48
15 c-83 26 -190 47 -244 47 l-52 0 32 -26 c46 -39 57 -69 63 -176 l6 -97 -80
-102 c-44 -57 -87 -115 -94 -129 -8 -15 -21 -33 -30 -40 -9 -8 -27 -35 -41
-61 -13 -26 -28 -50 -32 -53 -16 -10 -135 12 -261 48 -69 20 -127 34 -129 31
-6 -6 22 -48 62 -93 32 -36 97 -123 143 -189 l22 -33 -24 -36 c-14 -20 -25
-44 -25 -53 0 -9 -6 -25 -14 -36 -7 -11 -37 -67 -66 -124 l-53 -103 -51 6
c-28 3 -118 9 -201 12 -172 7 -170 11 -43 -79 42 -30 101 -76 131 -103 l55
-48 -20 -38 c-11 -21 -24 -40 -28 -43 -5 -3 -14 -22 -21 -43 -6 -20 -20 -48
-29 -62 -10 -14 -32 -53 -50 -87 l-31 -63 -187 0 c-102 0 -211 -5 -241 -11
-49 -10 -69 -9 -156 11 -94 21 -135 40 -135 63 0 17 -71 201 -101 262 -35 71
-37 67 81 125 47 22 114 55 150 73 l65 32 -135 17 c-182 23 -258 39 -274 57
-31 35 -131 179 -159 231 -96 173 -96 175 -24 244 54 53 82 70 132 81 l30 7
-25 11 c-15 7 -79 11 -162 9 -138 -2 -162 4 -138 33 9 11 5 14 -26 17 -33 3
-43 10 -78 60 -23 31 -60 80 -84 109 -24 29 -52 70 -63 91 l-19 38 30 66 c40
84 39 137 -2 142 -15 2 -37 -2 -50 -9 -12 -6 -44 -18 -70 -25 l-48 -12 -108
120 c-136 151 -352 369 -402 405 -139 100 -172 119 -254 148 -50 18 -90 38
-89 44 3 12 -16 14 -41 5 -25 -10 -20 -23 44 -114 33 -47 69 -105 81 -130 11
-25 31 -58 43 -75 12 -16 36 -55 51 -85 16 -30 51 -88 77 -128 26 -40 50 -83
54 -95 4 -12 26 -47 49 -77 23 -30 59 -86 80 -125 80 -148 109 -201 120 -215
13 -16 131 -282 185 -415 17 -44 44 -109 60 -145 38 -86 146 -411 159 -480 7
-30 20 -82 30 -115 10 -33 26 -89 35 -125 10 -36 24 -89 32 -118 31 -107 86
-340 104 -437 27 -142 49 -253 61 -303 9 -39 26 -135 66 -367 8 -49 18 -128
23 -175 4 -47 15 -164 23 -260 9 -96 20 -236 24 -310 l8 -135 55 -18 c59 -20
61 -20 200 27 46 15 65 54 64 131 -1 75 -22 117 -76 153 -22 15 -54 39 -69 54
-26 24 -28 29 -18 57 17 48 54 72 108 69 42 -2 47 1 94 53 67 74 95 120 109
178 18 78 6 110 -74 198 -81 90 -122 147 -116 164 6 17 95 46 195 64 86 16
133 32 133 47 0 43 -144 345 -186 389 -13 14 -24 28 -24 31 0 6 70 -19 148
-53 74 -33 92 -24 92 46 0 36 -42 181 -67 228 -19 37 -9 49 65 75 103 37 139
38 207 3 33 -17 78 -44 100 -61 22 -16 55 -39 73 -51 38 -25 40 -46 11 -109
-11 -25 -30 -73 -41 -107 -11 -35 -35 -78 -52 -97 l-31 -33 -127 11 c-69 6
-130 14 -134 19 -4 4 -22 7 -41 7 -31 0 -33 -2 -22 -21 17 -33 110 -124 144
-142 17 -8 43 -28 58 -45 l28 -29 -16 -44 c-9 -24 -25 -72 -36 -105 -14 -46
-28 -69 -53 -88 -42 -31 -37 -31 -144 -5 -59 14 -97 29 -121 49 -19 16 -37 28
-39 26 -8 -9 78 -167 115 -212 80 -97 97 -202 56 -346 -16 -56 -18 -59 -72
-84 -31 -14 -84 -37 -119 -51 -55 -22 -62 -28 -56 -47 8 -24 44 -79 57 -85 18
-7 55 -79 62 -119 11 -69 -2 -117 -52 -177 -61 -75 -109 -99 -198 -99 -47 0
-83 6 -110 18 -47 22 -51 24 -89 32 -28 7 -29 6 -22 -22 15 -60 41 -89 129
-139 94 -54 159 -112 178 -156 6 -17 10 -58 7 -96 -3 -59 -9 -75 -41 -119 -40
-56 -60 -68 -300 -185 -59 -29 -106 -58 -104 -63 2 -6 57 -29 124 -51 66 -22
128 -46 137 -54 31 -26 43 -71 34 -133 -11 -79 -39 -131 -107 -194 -63 -60
-92 -76 -205 -114 -90 -31 -85 -39 34 -50 115 -10 283 -63 312 -97 7 -9 7 -23
-1 -45 -19 -53 -25 -255 -12 -349 12 -80 21 -113 71 -254 24 -67 81 -179 108
-210 23 -28 31 -30 173 -53 374 -61 558 -62 929 -10 80 11 166 23 192 25 37 4
56 14 85 41 l38 36 -3 329 c-3 278 -6 333 -19 353 -12 18 -16 54 -17 142 l-1
117 40 3 c61 4 84 11 105 32 34 34 25 64 -34 117 -78 70 -116 137 -116 205 0
97 15 113 165 171 16 7 66 30 110 52 59 29 81 46 83 62 3 21 54 53 84 53 16 0
58 -28 58 -39 0 -40 -165 -174 -278 -226 l-62 -29 0 -45 c0 -47 34 -133 63
-163 38 -38 137 -196 137 -219 0 -31 -52 -72 -89 -72 -14 1 -46 7 -69 14 -68
21 -71 13 -66 -204 15 -630 15 -627 34 -617 38 21 120 183 244 485 21 50 44
104 52 120 13 30 69 173 104 270 10 28 32 80 49 117 17 36 31 71 31 76 0 6 13
39 29 75 31 69 72 107 114 107 65 0 101 35 77 74 -74 116 -85 169 -50 248 54
124 176 204 363 238 37 7 68 17 68 24 3 25 -4 42 -36 80 -42 53 -55 79 -55
110 0 35 68 158 126 228 l48 58 147 0 c80 0 160 3 177 6 l31 6 -23 32 c-44 58
-85 143 -90 185 -6 51 22 122 65 167 17 17 71 51 120 74 86 41 95 43 214 49
68 4 127 10 131 14 4 4 -4 33 -19 65 -49 106 -45 217 9 282 54 64 148 120 236
141 65 16 253 37 336 39 22 0 13 23 -25 63 -37 37 -38 40 -41 126 -5 106 1
120 83 193 97 86 178 122 330 147 72 12 134 26 138 30 5 5 -3 25 -17 46 -49
72 -40 88 178 303 91 89 161 162 155 162 -6 0 -66 -18 -133 -40 -66 -22 -152
-49 -191 -61 -168 -51 -493 -208 -650 -313 -38 -26 -83 -53 -100 -60 -16 -7
-50 -28 -75 -47 -25 -19 -70 -51 -100 -72 -30 -20 -83 -59 -117 -85 -34 -26
-79 -59 -100 -74 -69 -50 -178 -139 -181 -148 -2 -5 -27 -26 -55 -47 -58 -43
-244 -202 -325 -278 -316 -300 -642 -642 -752 -789 -21 -28 -50 -62 -65 -76
-35 -32 -139 -159 -155 -191 -7 -13 -13 -50 -13 -83 1 -58 0 -61 -62 -137 -64
-79 -85 -125 -85 -189 0 -45 21 -75 71 -100 21 -11 39 -25 39 -30 0 -5 -14
-17 -32 -26 -28 -14 -42 -15 -111 -5 -91 13 -104 20 -149 86 -18 28 -44 64
-57 81 -20 28 -23 43 -24 150 l-2 119 77 6 c105 9 146 17 155 33 5 8 31 29 58
47 l50 34 -76 10 c-42 6 -82 15 -90 20 -8 6 -27 17 -43 25 -16 8 -50 33 -75
56 l-45 41 12 79 c6 43 15 101 18 127 8 58 11 60 149 76 55 6 125 16 156 21
30 6 65 10 78 10 12 0 19 4 16 10 -3 6 -21 10 -38 10 -37 0 -76 19 -42 21 15
0 12 3 -10 11 -16 6 -37 17 -46 24 -8 8 -48 21 -87 30 -84 19 -138 51 -135 80
11 83 77 406 87 423 4 6 23 13 44 16 20 3 90 15 155 27 115 22 144 38 95 54
-13 3 -41 14 -63 24 -22 10 -74 26 -115 35 -41 10 -78 21 -82 24 -4 4 10 58
31 121 21 63 41 133 45 155 16 86 52 114 146 115 39 0 179 24 224 37 16 5 31
14 33 20 5 15 -94 53 -212 83 -84 21 -100 28 -103 46 -3 22 65 234 121 374 30
78 36 85 63 88 110 10 340 60 327 72 -4 4 -44 22 -88 39 -144 57 -170 74 -169
107 3 57 33 136 99 257 90 164 88 163 188 170 45 4 83 11 85 17 2 6 38 10 83
10 l79 0 -19 31 c-10 17 -47 50 -82 74 -93 62 -113 87 -105 127 4 18 11 56 16
84 5 28 22 80 39 115 16 35 39 84 50 109 33 72 133 206 217 291 90 90 234 190
344 238 41 18 87 40 102 47 33 18 145 54 166 54 9 0 43 9 76 19 34 11 102 28
151 40 344 77 410 99 537 174 62 37 67 55 26 89 -68 56 -278 142 -450 183 -76
19 -312 28 -388 15z"/>
<path d="M1210 5477 c0 -22 146 -247 159 -247 4 0 23 -21 41 -47 45 -62 286
-303 374 -373 70 -56 173 -133 258 -192 25 -18 72 -55 105 -81 32 -26 108 -84
168 -129 61 -44 117 -89 125 -98 8 -9 31 -28 50 -41 39 -27 132 -107 200 -173
25 -24 88 -83 140 -132 52 -48 100 -96 105 -105 6 -10 48 -57 94 -106 47 -48
103 -113 126 -144 22 -30 60 -75 83 -99 23 -24 42 -49 42 -56 0 -6 25 -39 55
-74 31 -34 69 -86 86 -116 17 -30 35 -57 40 -60 5 -3 20 -29 34 -57 14 -29 52
-95 85 -147 33 -52 63 -103 66 -112 16 -53 104 -22 170 60 37 45 44 61 42 90
-3 32 -6 35 -59 52 -31 9 -83 33 -115 53 -33 21 -63 37 -68 37 -20 0 -74 51
-86 80 -20 48 -3 70 76 104 38 16 83 40 99 52 17 12 50 32 75 44 25 13 59 34
76 49 17 14 45 33 62 43 35 19 59 52 68 94 5 25 0 36 -35 71 -24 26 -60 49
-91 60 -42 15 -56 25 -72 57 -44 86 -114 184 -165 231 -31 27 -86 80 -123 116
l-67 66 -7 89 c-4 49 -9 108 -13 132 l-5 42 -32 -19 c-67 -40 -169 -73 -211
-69 -59 7 -196 89 -229 137 -15 21 -42 49 -60 62 -18 13 -65 60 -105 104 -127
141 -154 170 -147 157 5 -8 -2 -16 -22 -23 -16 -5 -34 -21 -41 -35 l-11 -24
-62 30 c-35 17 -72 36 -82 41 -34 19 -348 181 -441 227 -49 24 -111 58 -137
74 -26 16 -83 45 -126 63 -44 18 -100 46 -124 61 -48 31 -349 184 -360 184 -5
0 -8 -2 -8 -3z"/>
<path d="M10080 80 l0 -80 80 0 80 0 0 80 0 80 -80 0 -80 0 0 -80z"/>
</g>
</svg>
