<?xml version="1.0" standalone="no"?>
<!DOCTYPE svg PUBLIC "-//W3C//DTD SVG 20010904//EN"
 "http://www.w3.org/TR/2001/REC-SVG-20010904/DTD/svg10.dtd">
<svg version="1.0" xmlns="http://www.w3.org/2000/svg"
 width="1024.000000pt" height="1024.000000pt" viewBox="0 0 1024.000000 1024.000000"
 preserveAspectRatio="xMidYMid meet">

<g transform="translate(0.000000,1024.000000) scale(0.100000,-0.100000)"
fill="#000000" stroke="none">
<path d="M3463 9213 c4 -6 55 -34 114 -63 59 -29 115 -58 123 -65 8 -7 89 -51
180 -98 91 -46 192 -99 225 -118 33 -18 74 -40 90 -49 57 -30 110 -67 164
-114 30 -25 60 -46 67 -46 13 0 84 -75 84 -89 0 -5 22 -31 48 -58 27 -26 61
-70 77 -98 15 -27 36 -59 45 -70 10 -11 30 -49 45 -85 15 -36 31 -70 36 -76 8
-10 70 -178 109 -294 75 -227 148 -592 155 -775 1 -38 8 -128 15 -200 6 -71 9
-155 5 -185 -4 -30 -8 -89 -11 -130 -5 -99 -23 -262 -34 -325 -13 -67 -37
-243 -46 -332 -8 -83 -4 -86 55 -47 21 14 67 32 100 40 34 8 74 20 89 28 23
11 32 11 61 -1 l33 -14 -75 -72 c-47 -44 -79 -83 -83 -101 -4 -16 -13 -41 -20
-55 -24 -45 -17 -108 17 -167 22 -40 36 -54 53 -54 12 0 31 -7 42 -15 22 -17
54 -20 54 -5 0 6 8 10 18 10 18 0 83 59 147 135 81 95 130 147 148 157 16 8
28 2 73 -43 l53 -53 -32 -40 c-36 -45 -107 -159 -107 -172 0 -4 -15 -30 -33
-58 -83 -126 -105 -164 -121 -214 -10 -29 -28 -65 -40 -80 -12 -15 -28 -40
-36 -57 -8 -16 -28 -55 -46 -85 -18 -30 -36 -68 -40 -85 -4 -16 -34 -79 -66
-140 -56 -106 -180 -354 -182 -365 -5 -32 -84 -196 -117 -245 -25 -37 -101
-190 -159 -320 -12 -27 -30 -61 -40 -75 -9 -14 -24 -43 -33 -66 -8 -22 -28
-63 -44 -90 -30 -50 -36 -64 -98 -243 -60 -172 -76 -246 -82 -388 -3 -73 -9
-133 -12 -133 -4 0 -24 14 -45 32 -36 30 -38 33 -31 72 17 99 17 106 6 106 -6
0 -27 23 -47 50 -20 27 -42 50 -49 50 -8 0 -44 27 -82 59 -61 54 -91 72 -66
39 19 -25 61 -144 73 -209 11 -60 18 -74 70 -133 32 -36 62 -72 67 -80 4 -8
35 -30 68 -50 33 -20 81 -50 106 -66 31 -20 83 -38 160 -56 99 -23 130 -25
234 -21 145 6 353 -7 443 -27 77 -17 261 -36 344 -36 88 0 188 26 340 87 90
37 270 264 333 421 15 37 31 75 37 85 14 28 56 178 67 239 5 29 16 89 24 133
8 44 23 148 32 230 10 83 27 233 40 335 12 102 23 241 24 310 1 93 5 128 16
136 8 6 19 33 26 60 6 27 18 63 26 79 l14 30 -30 -32 c-27 -29 -31 -31 -40
-16 -6 12 -4 28 8 53 23 46 37 99 51 190 24 154 107 486 141 565 5 11 15 40
23 65 35 111 141 365 190 455 9 17 16 36 16 43 0 8 8 26 18 40 10 15 42 77 71
137 87 180 132 266 172 335 21 36 45 85 54 110 9 24 26 62 39 85 35 58 112
216 121 245 4 14 18 39 30 55 12 17 50 89 85 160 35 72 91 177 124 235 32 58
70 132 83 165 13 32 34 75 46 95 13 19 51 91 86 160 35 69 67 130 71 135 4 6
45 82 91 170 45 88 96 182 113 210 25 41 31 63 34 128 4 77 4 77 -21 77 -19 0
-46 -22 -109 -92 -46 -51 -107 -117 -136 -148 -49 -51 -53 -54 -64 -35 -18 31
-58 67 -69 63 -6 -2 -17 -15 -26 -29 -15 -25 -11 -41 25 -112 2 -4 -8 -3 -23
3 -51 19 -57 15 -54 -45 2 -46 -1 -60 -19 -78 -12 -12 -22 -16 -22 -9 0 6 -6
12 -12 12 -16 0 -57 -85 -60 -125 -3 -29 -5 -30 -63 -36 -33 -3 -97 -18 -142
-34 -72 -24 -83 -30 -83 -50 0 -18 8 -26 38 -36 20 -6 41 -14 45 -16 4 -3 -14
-30 -41 -61 -27 -31 -53 -65 -58 -75 -6 -9 -51 -62 -101 -116 -116 -124 -153
-137 -293 -106 -16 4 -13 1 10 -10 19 -8 49 -32 66 -52 l31 -36 -49 -66 c-87
-116 -159 -151 -313 -151 -88 0 -92 -23 -17 -105 l34 -36 -28 -37 c-15 -20
-55 -63 -88 -95 l-61 -58 -107 6 c-60 3 -108 3 -108 0 0 -3 16 -27 35 -52 19
-25 40 -63 46 -84 14 -46 1 -72 -68 -133 -24 -21 -65 -68 -90 -105 -26 -36
-72 -95 -104 -131 -31 -36 -61 -75 -68 -87 -6 -13 -18 -23 -25 -23 -20 0 -114
104 -119 131 -37 195 -52 263 -72 327 -13 42 -27 97 -30 122 -4 25 -20 90 -35
145 -16 55 -40 138 -53 185 -30 106 -106 309 -148 398 -37 79 -72 216 -65 254
3 15 25 70 50 122 68 146 22 117 -87 -55 -11 -16 -22 -29 -26 -29 -7 0 -51
101 -70 160 -6 19 -26 58 -44 85 -19 28 -47 70 -63 94 -40 61 -41 62 -58 99
-9 19 -13 46 -10 62 6 28 -19 148 -37 183 -19 34 -29 16 -29 -54 0 -88 -9 -87
-73 9 -26 40 -52 72 -57 72 -10 0 -90 104 -90 116 0 4 -12 23 -27 43 -23 30
-28 47 -29 96 -1 66 -12 125 -23 125 -4 0 -26 -18 -48 -41 l-42 -41 -48 18
c-26 10 -71 32 -99 50 -54 33 -161 83 -226 104 -32 10 -38 16 -38 40 0 15 15
51 34 79 l35 51 -27 -6 c-15 -4 -31 -10 -37 -14 -5 -4 -21 -11 -35 -15 -14 -4
-44 -16 -67 -27 -41 -19 -44 -19 -93 -3 -28 9 -74 20 -103 24 -76 12 -355 68
-472 96 -91 21 -148 29 -142 18z m2347 -3076 c0 -4 27 -34 60 -67 53 -52 59
-56 54 -32 -4 15 -11 33 -17 40 -6 8 -6 12 1 12 13 0 52 -48 52 -64 0 -7 -19
-35 -42 -63 -24 -28 -59 -73 -78 -99 -20 -27 -40 -49 -45 -49 -5 0 -15 32 -21
70 -7 39 -19 106 -28 150 -23 118 -23 116 24 113 22 -2 40 -7 40 -11z m180
-59 c0 -6 -6 -5 -15 2 -8 7 -15 14 -15 16 0 2 7 1 15 -2 8 -4 15 -11 15 -16z"/>
<path d="M4450 8616 c0 -2 8 -10 18 -17 15 -13 16 -12 3 4 -13 16 -21 21 -21
13z"/>
<path d="M2585 8231 c-8 -17 -19 -32 -23 -35 -5 -3 -166 1 -358 9 -403 17
-554 18 -554 7 0 -5 12 -9 28 -10 60 -1 241 -40 477 -101 267 -70 589 -216
713 -324 20 -18 55 -46 77 -62 47 -34 206 -194 244 -245 14 -19 60 -78 102
-130 42 -52 82 -106 89 -120 7 -14 38 -58 68 -99 30 -41 69 -101 87 -135 18
-34 62 -109 98 -168 35 -60 68 -123 71 -141 3 -18 19 -54 35 -79 16 -25 32
-56 36 -69 4 -13 22 -53 40 -89 18 -36 36 -81 40 -100 10 -48 54 -197 71 -240
23 -57 73 -316 93 -480 22 -178 32 -522 26 -884 -3 -245 -2 -373 5 -381 6 -7
14 -116 20 -246 5 -129 14 -252 19 -274 6 -22 11 -78 11 -125 0 -80 21 -269
38 -350 9 -42 64 -84 98 -76 13 4 27 0 34 -9 7 -8 18 -14 24 -13 42 8 91 -46
88 -97 -2 -26 0 -28 9 -11 10 16 9 59 -2 106 -3 11 3 14 23 12 26 -3 28 1 61
105 20 59 49 133 66 163 17 30 31 58 31 62 0 3 -13 11 -29 16 -28 10 -77 67
-135 161 -27 43 -27 43 -8 62 19 17 24 17 104 2 46 -9 95 -13 109 -10 39 11
131 148 164 243 11 33 12 48 2 73 -6 17 -14 31 -18 31 -3 0 -29 26 -57 59
l-51 58 134 18 c74 9 141 23 150 29 9 6 20 27 25 46 5 19 20 68 34 108 29 83
35 194 13 227 -28 42 -79 175 -73 190 4 10 -2 19 -18 25 -13 4 -26 16 -30 25
-5 15 -2 16 21 11 48 -12 200 -19 258 -11 63 7 64 10 40 95 -9 30 -22 80 -29
110 -8 30 -28 91 -45 135 -17 44 -31 86 -31 93 0 7 -13 41 -29 75 -15 34 -36
85 -46 112 -10 28 -24 57 -32 66 -7 8 -22 42 -33 74 -11 32 -27 66 -34 74 -8
9 -18 30 -21 46 -8 33 -110 242 -130 265 -18 21 -95 171 -95 185 0 12 55 69
165 170 l60 55 -50 -20 c-27 -12 -54 -25 -59 -31 -13 -12 -172 -12 -196 1 -17
9 -110 124 -110 136 0 9 -85 117 -110 139 -12 11 -28 35 -36 55 -8 19 -25 45
-36 58 -21 22 -21 24 -5 52 67 112 70 123 54 163 -18 41 -42 48 -53 15 -3 -12
-28 -43 -55 -69 l-48 -49 -20 34 c-11 18 -49 60 -83 93 -130 123 -180 183
-175 206 3 12 9 67 13 122 3 55 13 117 20 137 12 36 10 35 -64 -38 -42 -40
-85 -76 -95 -80 -19 -6 -63 23 -120 79 -17 18 -45 41 -62 51 -16 11 -60 49
-96 85 l-66 65 20 45 c17 38 18 49 7 84 -11 37 -13 39 -43 33 l-32 -6 30 25
c56 45 65 55 65 66 0 6 -23 -9 -50 -33 -95 -81 -132 -108 -151 -108 -11 0 -48
17 -82 38 -124 76 -185 112 -192 112 -6 0 -215 103 -291 143 -26 14 -33 24
-29 37 7 23 -59 100 -86 100 -10 0 -25 -13 -34 -29z"/>
<path d="M5085 5760 c-22 -23 -25 -30 -12 -30 9 0 17 5 17 12 0 6 7 20 17 30
27 30 9 20 -22 -12z"/>
<path d="M5370 5486 c0 -9 5 -16 10 -16 6 0 10 4 10 9 0 6 -4 13 -10 16 -5 3
-10 -1 -10 -9z"/>
<path d="M5290 5466 c0 -7 -7 -19 -15 -26 -8 -7 -15 -21 -15 -32 0 -17 3 -18
15 -8 8 7 15 18 15 25 0 7 7 18 15 25 8 7 15 16 15 21 0 5 -7 9 -15 9 -8 0
-15 -6 -15 -14z"/>
<path d="M5327 5425 c-15 -19 -27 -41 -27 -49 0 -21 18 -30 35 -16 8 7 15 7
19 1 4 -5 -1 -14 -10 -19 -22 -12 -12 -40 20 -52 13 -5 26 -15 28 -22 6 -16
-12 -58 -24 -58 -4 0 -8 -4 -8 -10 0 -5 12 -10 26 -10 21 0 25 4 21 20 -3 11
-1 23 5 26 5 4 7 20 4 37 -3 16 -2 35 3 41 7 8 2 12 -17 11 -21 0 -28 5 -30
23 -2 15 2 22 12 22 9 0 16 4 16 9 0 15 -18 23 -25 11 -13 -21 -24 1 -14 27
15 41 -4 46 -34 8z"/>
<path d="M4304 2629 c-59 -27 -134 -123 -232 -298 -83 -146 -108 -298 -65
-384 13 -27 16 -28 32 -13 10 9 30 41 46 72 17 33 52 77 88 109 50 46 74 59
141 79 98 30 221 49 295 44 52 -3 55 -5 66 -36 12 -38 44 -74 95 -108 19 -13
51 -35 70 -48 20 -13 72 -33 115 -45 87 -24 151 -60 205 -117 66 -69 301 -244
327 -244 6 0 25 46 43 102 48 151 65 185 102 208 38 24 135 53 228 69 36 6 92
18 125 26 33 7 83 18 110 24 28 5 58 13 68 16 15 6 17 1 17 -42 0 -100 50
-200 96 -191 9 1 26 16 38 31 35 48 27 124 -24 231 -29 61 -40 96 -37 115 7
34 -21 176 -44 222 -23 46 -93 115 -125 123 -15 4 -36 1 -52 -8 -57 -31 -181
-85 -232 -100 -98 -29 -268 -21 -467 23 -51 11 -143 23 -205 27 -100 6 -128 4
-243 -20 -137 -29 -267 -34 -215 -8 23 11 23 11 -11 6 -41 -6 -109 19 -163 60
-65 49 -136 96 -143 95 -5 0 -27 -9 -49 -20z m1978 -570 c20 -53 24 -133 6
-127 -16 6 -47 101 -47 146 -1 46 20 37 41 -19z"/>
<path d="M4600 2555 c-10 -12 -10 -19 -2 -27 9 -9 23 -9 57 0 25 7 60 12 78
13 25 1 18 4 -28 15 -78 17 -90 17 -105 -1z"/>
<path d="M10080 80 l0 -80 80 0 80 0 0 80 0 80 -80 0 -80 0 0 -80z"/>
</g>
</svg>
