<?xml version="1.0" standalone="no"?>
<!DOCTYPE svg PUBLIC "-//W3C//DTD SVG 20010904//EN"
 "http://www.w3.org/TR/2001/REC-SVG-20010904/DTD/svg10.dtd">
<svg version="1.0" xmlns="http://www.w3.org/2000/svg"
 width="913.000000pt" height="966.000000pt" viewBox="0 0 913.000000 966.000000"
 preserveAspectRatio="xMidYMid meet">

<g transform="translate(0.000000,966.000000) scale(0.100000,-0.100000)"
fill="#000000" stroke="none">
<path d="M1470 8734 c0 -3 86 -92 190 -197 253 -254 311 -315 342 -357 14 -19
49 -58 76 -87 27 -28 63 -71 80 -95 16 -23 44 -56 61 -73 18 -16 46 -52 64
-80 17 -27 60 -86 94 -129 34 -44 69 -94 77 -110 9 -17 33 -53 56 -81 22 -27
47 -65 55 -83 15 -31 37 -66 136 -215 22 -32 39 -63 39 -69 0 -6 23 -48 50
-93 28 -46 60 -105 72 -132 11 -26 33 -66 47 -88 15 -22 37 -65 51 -95 13 -30
58 -128 101 -216 43 -89 81 -175 85 -190 4 -16 13 -38 19 -49 7 -11 15 -34 18
-52 4 -18 18 -51 33 -74 14 -23 34 -69 44 -103 21 -71 99 -297 129 -374 12
-29 26 -74 31 -100 6 -26 20 -78 30 -117 43 -149 49 -173 69 -260 19 -82 27
-129 61 -355 6 -41 16 -97 22 -123 5 -26 8 -51 5 -54 -3 -3 -27 10 -54 28 -44
30 -56 33 -140 37 l-91 4 -47 82 c-26 44 -56 96 -67 114 l-20 33 25 23 c15 13
37 46 49 73 l24 48 -51 1 c-90 1 -122 12 -164 56 -55 56 -68 90 -47 120 22 31
20 48 -3 19 -27 -35 -44 -19 -38 35 3 28 18 63 41 97 20 29 36 55 36 59 0 4
-18 12 -41 18 -35 10 -52 8 -111 -10 -66 -20 -71 -20 -89 -4 -21 19 -79 164
-79 198 0 13 11 44 25 70 14 26 25 49 25 52 0 2 -33 4 -72 4 -97 0 -146 15
-185 55 -56 59 -54 118 9 196 17 21 28 42 25 45 -4 4 -40 1 -81 -6 -111 -19
-159 -11 -207 36 -57 55 -90 131 -90 204 0 33 3 65 7 72 4 7 -6 1 -22 -14 -16
-15 -44 -30 -61 -34 -38 -7 -146 25 -203 61 -138 87 -484 225 -618 246 -194
30 -284 19 -290 -35 -7 -59 4 -73 93 -115 46 -23 89 -41 95 -41 5 0 32 -13 58
-30 27 -16 52 -30 56 -30 4 0 54 -38 112 -85 114 -92 253 -230 314 -310 21
-27 57 -73 78 -102 22 -28 46 -61 52 -74 7 -12 39 -59 71 -105 32 -45 64 -95
70 -110 5 -16 25 -53 44 -84 62 -103 69 -117 165 -315 40 -82 81 -172 91 -200
9 -27 29 -73 43 -101 14 -29 41 -94 61 -145 20 -52 43 -107 50 -124 22 -47 63
-161 100 -275 19 -58 39 -118 46 -135 6 -16 17 -50 24 -75 8 -25 26 -76 40
-115 25 -68 34 -97 116 -375 22 -74 47 -153 56 -175 14 -36 47 -162 59 -224 3
-13 11 -40 20 -59 8 -19 35 -114 60 -210 25 -96 53 -200 64 -231 10 -31 37
-117 60 -191 23 -74 62 -195 86 -269 24 -73 44 -140 44 -147 0 -8 13 -42 29
-76 16 -35 32 -74 36 -88 4 -14 15 -38 25 -55 9 -16 23 -46 31 -65 7 -19 35
-73 61 -120 26 -47 48 -92 48 -101 0 -9 22 -45 50 -80 27 -35 70 -93 94 -129
43 -62 144 -161 210 -204 49 -33 132 -76 146 -76 7 0 36 -11 64 -24 69 -32
220 -57 328 -55 230 5 695 86 789 138 8 5 47 21 85 36 198 79 400 206 529 332
102 100 204 223 227 275 l18 41 -47 -7 c-171 -25 -479 -33 -633 -17 -184 20
-337 65 -435 129 -93 62 -115 82 -115 106 0 12 -13 49 -30 84 -30 64 -106 145
-196 211 -73 52 -213 235 -332 432 -91 152 -85 141 -137 254 -26 55 -53 107
-60 115 -14 17 -85 209 -85 232 0 9 -6 21 -14 27 -15 12 -96 174 -96 191 0 5
-13 34 -29 65 l-29 56 83 40 c46 21 88 39 93 39 11 0 21 -47 42 -190 7 -47 19
-102 26 -122 12 -34 11 -39 -5 -47 -15 -9 -17 -19 -13 -63 7 -80 15 -89 65
-82 53 7 98 20 165 47 58 23 66 20 77 -30 7 -35 -8 -55 -88 -113 l-37 -28 27
-9 28 -10 -33 -30 -34 -30 21 -40 c11 -22 40 -60 64 -85 55 -57 95 -66 166
-39 27 11 52 17 55 12 6 -9 -34 -66 -59 -85 -12 -8 -18 -30 -21 -72 -3 -54 0
-63 33 -111 36 -52 55 -64 69 -42 3 6 26 20 50 30 55 25 324 240 324 260 0 3
-28 28 -62 55 l-63 49 55 6 c45 6 60 13 81 39 24 28 30 31 63 25 20 -4 52 -18
72 -31 19 -13 38 -24 42 -24 5 0 15 26 23 57 13 50 18 58 41 61 14 2 34 12 44
24 19 20 19 21 -2 14 -28 -8 -56 21 -33 35 8 5 24 9 36 9 12 0 25 5 29 11 8
14 -14 29 -43 29 -27 0 -32 7 -39 64 l-7 46 51 0 c28 0 54 -5 57 -10 19 -31
18 2 -2 103 -23 115 -29 171 -15 165 37 -18 80 -48 103 -72 22 -23 32 -27 57
-21 17 3 33 13 36 21 3 8 11 14 17 14 7 0 17 7 24 16 10 15 14 14 37 -9 23
-23 24 -26 10 -53 -8 -16 -32 -52 -54 -81 -21 -29 -38 -56 -38 -60 0 -17 -43
-89 -80 -133 -21 -25 -46 -61 -57 -81 -10 -20 -34 -57 -53 -84 -137 -188 -191
-258 -247 -318 -35 -37 -63 -71 -63 -75 0 -5 -54 -55 -119 -113 -66 -57 -120
-109 -120 -115 -1 -13 34 -46 78 -72 18 -11 60 -43 92 -72 45 -40 63 -64 79
-108 35 -93 75 -148 128 -173 37 -19 81 -26 217 -38 294 -24 593 -14 804 28
106 22 111 26 150 119 13 31 32 75 42 97 10 22 21 54 24 70 8 35 82 269 97
305 6 14 25 81 43 150 43 162 69 258 96 345 12 39 37 129 55 200 30 114 92
320 125 410 6 17 19 62 29 100 27 103 45 159 84 265 19 52 52 149 74 215 80
248 144 423 177 485 7 14 22 56 34 94 12 39 30 88 41 110 70 152 99 216 110
251 7 22 24 60 38 85 13 25 30 65 38 90 7 25 25 61 38 79 14 19 31 50 37 70
22 66 190 364 275 486 99 143 244 293 323 334 14 7 53 30 86 51 33 21 106 63
163 92 63 34 108 64 116 79 7 13 18 33 25 44 10 16 9 27 -4 59 -15 36 -18 38
-48 32 -18 -4 -63 -11 -102 -17 -154 -22 -283 -51 -350 -78 -88 -35 -230 -109
-314 -161 -43 -27 -76 -40 -99 -40 -33 0 -116 20 -171 41 -19 8 -22 7 -17 -6
3 -9 13 -45 23 -79 16 -61 16 -64 -5 -108 -29 -58 -102 -135 -174 -183 -52
-34 -61 -37 -115 -32 -32 2 -76 11 -98 20 l-40 15 -3 -29 c-2 -21 6 -41 27
-68 27 -34 31 -46 31 -104 0 -65 0 -66 -55 -131 -69 -81 -113 -98 -184 -72
-33 12 -47 13 -57 5 -18 -15 -18 -53 0 -69 8 -6 22 -30 31 -53 14 -38 15 -48
1 -101 -15 -58 -42 -98 -80 -118 -22 -12 -99 7 -117 28 -6 8 -14 14 -18 14 -3
0 -6 -56 -6 -123 0 -89 -4 -129 -13 -140 -8 -9 -12 -20 -9 -24 10 -16 -13 -54
-30 -52 -10 2 -28 -3 -41 -9 -25 -14 -84 -7 -117 13 -11 7 -37 15 -57 18 -29
4 -36 3 -31 -9 3 -8 9 -14 14 -14 5 0 29 -15 55 -32 l46 -33 -7 -85 c-4 -48
-13 -95 -22 -109 -14 -22 -20 -23 -75 -18 -71 6 -104 31 -113 86 -6 37 7 194
25 311 5 36 14 117 19 180 6 63 15 142 21 175 5 33 14 103 20 155 19 176 126
701 177 870 9 30 20 71 24 90 12 55 45 158 74 235 14 39 34 93 44 120 36 97
163 306 247 407 84 101 356 368 375 368 3 0 33 25 65 56 33 31 75 64 96 75 20
10 45 30 56 44 11 14 60 55 108 91 48 36 110 85 137 110 27 24 53 44 58 44 5
0 33 21 62 48 56 49 171 139 203 158 11 7 17 14 14 17 -3 3 -57 -17 -120 -44
-63 -28 -140 -61 -170 -74 -132 -55 -221 -98 -390 -187 -58 -31 -116 -59 -129
-63 -13 -4 -60 -32 -104 -61 -44 -30 -103 -67 -131 -83 -28 -15 -87 -52 -131
-81 -44 -29 -115 -76 -157 -104 -43 -28 -78 -54 -78 -58 0 -4 -37 -35 -82 -70
-97 -73 -298 -270 -321 -313 -8 -17 -27 -41 -42 -55 -15 -14 -42 -48 -61 -77
-29 -46 -44 -58 -126 -98 -113 -56 -146 -81 -130 -97 7 -7 32 -11 57 -9 25 1
45 -1 45 -6 0 -5 -13 -29 -29 -54 -15 -25 -36 -68 -45 -97 -10 -28 -26 -62
-36 -75 -11 -14 -30 -44 -42 -68 -19 -37 -31 -47 -73 -61 -28 -9 -71 -17 -97
-18 -26 0 -49 -4 -52 -8 -3 -5 21 -22 52 -38 l57 -29 -3 -85 c-4 -131 -68
-288 -118 -290 -14 0 -1 -115 15 -134 8 -10 9 -16 1 -21 -15 -9 -12 -41 5 -55
11 -9 13 -16 5 -24 -14 -14 -13 -27 3 -25 23 5 84 -29 89 -49 7 -26 1 -32 -31
-32 -53 0 -73 -11 -67 -36 3 -12 11 -58 16 -101 6 -43 13 -94 15 -113 15 -108
13 -104 64 -123 27 -9 69 -17 95 -17 69 0 55 -14 -31 -30 l-78 -15 -8 -39
c-10 -40 16 -180 34 -192 9 -5 49 -78 49 -89 0 -3 -12 -5 -26 -5 -24 0 -26 -2
-20 -32 3 -18 17 -54 30 -81 24 -46 24 -48 4 -41 -18 5 -19 3 -13 -28 4 -18
14 -49 23 -68 8 -19 14 -45 13 -57 -1 -12 4 -50 13 -85 21 -91 34 -171 46
-272 9 -87 18 -105 50 -106 18 -1 56 -28 53 -38 0 -4 3 -14 7 -22 6 -11 12
-12 20 -4 13 13 3 44 -14 44 -6 0 -19 9 -28 19 -16 19 -16 21 1 43 10 13 26
38 35 56 16 32 17 32 89 32 84 0 103 -11 81 -46 -9 -12 -25 -41 -37 -63 -12
-23 -44 -79 -70 -126 l-48 -85 -48 0 c-55 0 -140 38 -170 76 -11 14 -24 55
-30 92 -7 37 -21 119 -32 182 -12 63 -25 142 -29 176 -5 34 -16 90 -24 125 -8
35 -20 111 -26 169 -6 58 -15 123 -20 145 -4 22 -11 74 -14 115 -4 41 -13 113
-21 160 -15 84 -27 208 -45 450 -5 69 -16 175 -25 235 -8 61 -20 162 -25 225
-5 63 -17 167 -25 230 -58 453 -66 546 -65 810 0 260 24 496 66 660 25 98 15
137 -24 88 -9 -13 -45 -50 -79 -84 -35 -34 -63 -66 -63 -71 0 -6 -31 -46 -70
-89 -38 -43 -70 -84 -70 -91 0 -6 -28 -48 -62 -94 -35 -45 -66 -87 -70 -93 -3
-6 -37 -63 -74 -126 -37 -63 -73 -122 -80 -130 -6 -8 -18 -33 -25 -55 -8 -22
-28 -65 -46 -95 -18 -30 -33 -61 -33 -67 0 -13 -29 -80 -61 -144 -36 -71 -135
-382 -175 -549 -7 -30 -22 -91 -32 -135 -11 -44 -25 -111 -31 -150 -32 -209
-64 -413 -81 -515 -10 -63 -28 -185 -39 -270 -11 -85 -27 -211 -36 -280 -8
-69 -18 -156 -21 -195 -2 -38 -9 -92 -14 -120 -5 -27 -14 -93 -20 -145 -7 -52
-18 -131 -26 -175 -8 -44 -18 -120 -24 -170 -15 -135 -38 -247 -56 -266 -9
-10 -30 -21 -48 -25 -17 -3 -51 -17 -76 -29 -77 -39 -89 -40 -100 -10 -5 14
-25 50 -45 80 -52 82 -67 121 -50 135 15 12 116 32 156 31 19 -1 36 9 57 33
25 29 30 45 36 112 4 44 14 119 22 168 8 49 19 126 24 170 8 78 38 254 59 346
12 50 14 120 5 144 -4 11 -19 16 -44 16 -44 0 -70 8 -70 21 0 5 7 9 17 9 9 0
40 11 69 25 50 24 54 28 70 83 9 31 22 72 30 90 8 18 14 49 14 70 1 33 -6 43
-56 88 l-57 51 34 42 c22 26 47 45 71 51 33 9 37 14 36 43 0 17 3 76 7 130 l8
97 -31 0 c-24 0 -40 11 -76 51 -44 49 -58 79 -36 79 6 0 17 -15 25 -32 8 -18
14 -27 15 -20 0 7 -7 29 -15 50 l-16 37 55 52 c57 54 58 57 82 197 6 36 5 39
-12 31 -108 -44 -115 -45 -176 -22 -46 18 -68 34 -103 77 -25 30 -51 74 -57
97 -11 39 -13 41 -29 27 -24 -22 -34 -1 -16 34 7 15 28 51 45 80 30 50 31 52
10 52 -12 0 -29 6 -37 13 -17 15 -60 32 -104 41 -30 7 -95 69 -133 126 -59 89
-76 230 -40 323 10 27 16 50 14 52 -6 6 -57 -42 -95 -90 l-32 -40 -28 35
c-118 150 -568 617 -650 676 -24 17 -59 49 -79 72 -20 23 -41 42 -48 42 -6 0
-32 21 -56 46 -25 25 -58 52 -74 61 -15 8 -47 31 -70 52 -22 21 -63 50 -90 65
-27 16 -65 43 -85 61 -20 18 -56 42 -81 55 -25 12 -64 38 -87 56 -23 19 -45
34 -50 34 -5 0 -33 16 -63 36 -30 20 -125 72 -210 116 -85 44 -159 84 -164 89
-11 10 -26 12 -26 3z m4700 -3849 c0 -6 -102 -161 -130 -197 -20 -26 -27 -28
-91 -28 -83 0 -128 17 -158 58 -28 40 -27 68 6 89 50 33 175 14 188 -28 9 -29
30 -22 51 16 16 29 134 109 134 90z m-2757 -192 c-7 -2 -19 -2 -25 0 -7 3 -2
5 12 5 14 0 19 -2 13 -5z m137 -23 c0 -5 -4 -10 -9 -10 -6 0 -13 5 -16 10 -3
6 1 10 9 10 9 0 16 -4 16 -10z m-37 -24 c51 -22 112 -94 130 -155 28 -88 22
-103 -44 -115 -78 -14 -136 39 -175 158 -15 45 -31 86 -36 93 -5 7 -7 17 -3
23 9 15 90 12 128 -4z m277 -365 c0 -13 -29 -35 -37 -28 -7 8 15 37 28 37 5 0
9 -4 9 -9z m1843 -72 c21 -23 10 -24 -28 -5 -28 15 -45 33 -45 50 0 10 48 -20
73 -45z m49 -59 c16 0 28 5 28 10 0 6 -9 10 -20 10 -11 0 -20 4 -20 10 0 8 57
4 68 -5 2 -2 -16 -38 -39 -81 -23 -44 -53 -101 -67 -129 -14 -27 -38 -66 -53
-85 -15 -19 -32 -51 -38 -70 -6 -19 -20 -46 -31 -60 l-20 -25 -1 30 c-3 49 -4
53 -12 61 -4 4 -7 16 -7 27 0 27 -69 162 -102 198 -15 17 -28 32 -28 33 0 4
149 19 207 21 49 2 62 10 45 27 -7 7 -12 25 -12 40 l0 28 37 -20 c21 -11 50
-20 65 -20z"/>
<path d="M3305 5050 c-3 -5 -2 -10 4 -10 5 0 13 5 16 10 3 6 2 10 -4 10 -5 0
-13 -4 -16 -10z"/>
<path d="M5047 3126 c-18 -19 -22 -36 -8 -36 13 0 33 28 29 41 -3 8 -9 6 -21
-5z"/>
</g>
</svg>
